<svg width="512" height="512" xmlns="http://www.w3.org/2000/svg">

 <g>
  <title>background</title>
  <rect fill="none" id="canvas_background" height="402" width="582" y="-1" x="-1"/>
 </g>
 <g>
  <title fill="#ffffff">Layer 1</title>
  <path fill="#ffffff" id="svg_2" d="m257,0c-141.386,0 -256,114.614 -256,256s114.614,256 256,256s256,-114.614 256,-256s-114.614,-256 -256,-256zm0,484.002c-125.92,0 -228,-102.08 -228,-228.002s102.08,-228 228,-228s228,102.08 228,228s-102.08,228.002 -228,228.002z"/>
  <path fill="#ffffff" id="svg_3" d="m257,40c-119.292,0 -216,96.706 -216,216s96.706,216 216,216s216,-96.706 216,-216c0,-119.292 -96.708,-216 -216,-216zm76,115.098l-33.354,0.016c-26.15,0 -31.214,12.486 -31.214,30.808l0,28.404l62.372,0l-8.122,63.286l-54.25,0l0,138.388l-65.046,0l0,-138.388l-54.386,0l0,-63.286l54.388,0l0,-34.672c0,-54.16 32.922,-83.654 81.012,-83.654c23.034,0 42.832,1.724 48.6,2.494l0,56.604z"/>
 </g>
</svg>