<svg width="512" height="512" xmlns="http://www.w3.org/2000/svg">

 <g>
  <title>background</title>
  <rect fill="none" id="canvas_background" height="402" width="582" y="-1" x="-1"/>
 </g>
 <g>
  <title fill="#ffffff">Layer 1</title>
  <path fill="#ffffff" id="svg_2" d="m300.16,284.544c-5.776,0 -11.156,3.196 -16.228,9.508l0,-38.422l-15.712,0l0,117.628l15.712,0l0,-8.502c5.246,6.566 10.642,9.706 16.228,9.706c6.262,0 10.462,-3.328 12.562,-9.852c1.044,-3.716 1.58,-9.552 1.58,-17.658l0,-34.904c0,-8.292 -0.536,-14.086 -1.58,-17.612c-2.1,-6.562 -6.3,-9.892 -12.562,-9.892zm-1.564,63.664c0,7.918 -2.302,11.82 -6.838,11.82c-2.582,0 -5.202,-1.25 -7.826,-3.902l0,-53.426c2.626,-2.61 5.246,-3.86 7.826,-3.86c4.534,0 6.838,4.058 6.838,11.962l0,37.406z"/>
  <path fill="#ffffff" id="svg_3" d="m257,0c-141.386,0 -256,114.614 -256,256s114.614,256 256,256s256,-114.614 256,-256s-114.614,-256 -256,-256zm0,484.002c-125.92,0 -228,-102.08 -228,-228.002s102.08,-228 228,-228s228,102.08 228,228s-102.08,228.002 -228,228.002z"/>
  <path fill="#ffffff" id="svg_4" d="m259.316,197.498c5.12,0 7.58,-4.102 7.58,-12.294l0,-37.26c0,-8.192 -2.46,-12.282 -7.58,-12.282c-5.112,0 -7.568,4.09 -7.568,12.282l0,37.26c0,8.192 2.456,12.294 7.568,12.294z"/>
  <polygon fill="#ffffff" id="svg_5" points="152.378,272.196 170.858,272.196 170.858,373.262 188.332,373.262 188.332,272.196 207.15,272.196     207.15,255.634 152.378,255.634   "/>
  <path fill="#ffffff" id="svg_6" d="m238.9,352.596c-3.482,4.976 -6.782,7.43 -9.932,7.43c-2.1,0 -3.298,-1.25 -3.676,-3.714c-0.148,-0.508 -0.148,-2.454 -0.148,-6.17l0,-64.524l-15.702,0l0,69.3c0,6.192 0.52,10.37 1.384,13.024c1.57,4.444 5.058,6.522 10.122,6.522c5.776,0 11.71,-3.526 17.95,-10.768l0,9.562l15.724,0l0,-87.642l-15.724,0l0.002,66.98l0,0z"/>
  <path fill="#ffffff" id="svg_7" d="m257,40c-119.292,0 -216,96.706 -216,216s96.706,216 216,216s216,-96.706 216,-216c0,-119.292 -96.706,-216 -216,-216zm38.84,82.282l15.828,0l0,65.21c0,3.76 0,5.716 0.192,6.248c0.35,2.476 1.598,3.758 3.73,3.758c3.172,0 6.502,-2.488 10.02,-7.518l0,-67.698l15.878,0l0,88.572l-15.878,0l0,-9.664c-6.324,7.332 -12.346,10.882 -18.136,10.882c-5.108,0 -8.642,-2.102 -10.222,-6.578c-0.876,-2.686 -1.41,-6.92 -1.41,-13.168l0,-70.044l-0.002,0l0,0zm-59.97,28.88c0,-9.464 1.598,-16.384 4.972,-20.862c4.392,-6.058 10.566,-9.076 18.474,-9.076c7.958,0 14.144,3.018 18.53,9.076c3.332,4.478 4.928,11.398 4.928,20.862l0,31.014c0,9.42 -1.596,16.396 -4.928,20.83c-4.386,6.038 -10.572,9.066 -18.53,9.066c-7.908,0 -14.082,-3.028 -18.474,-9.066c-3.374,-4.432 -4.972,-11.41 -4.972,-20.83l0,-31.014zm-42.458,-59.162l12.498,46.68l12.016,-46.68l17.802,0l-21.182,70.718l0,48.138l-17.61,0l0,-48.138c-1.598,-8.526 -5.114,-21.02 -10.764,-37.604c-3.714,-11.024 -7.574,-22.092 -11.284,-33.114l18.524,0zm195.004,286.524c-3.172,13.976 -14.488,24.28 -28.094,25.816c-32.24,3.638 -64.87,3.66 -97.352,3.638c-32.488,0.022 -65.118,0 -97.352,-3.638c-13.614,-1.536 -24.912,-11.842 -28.09,-25.816c-4.528,-19.9 -4.528,-41.626 -4.528,-62.114c0,-20.498 0.05,-42.214 4.584,-62.126c3.172,-13.964 14.478,-24.268 28.09,-25.804c32.236,-3.648 64.866,-3.66 97.352,-3.648c32.482,-0.012 65.112,0 97.352,3.648c13.606,1.536 24.918,11.842 28.094,25.804c4.528,19.912 4.506,41.628 4.506,62.126c0,20.486 -0.026,42.212 -4.562,62.114z"/>
  <path fill="#ffffff" id="svg_8" d="m350.204,284.544c-8.018,0 -14.28,2.986 -18.814,8.988c-3.342,4.434 -4.856,11.278 -4.856,20.642l0,30.704c0,9.31 1.712,16.23 5.048,20.61c4.538,5.982 10.79,8.978 19.016,8.978c8.204,0 14.646,-3.14 19,-9.498c1.904,-2.82 3.14,-6.004 3.67,-9.52c0.142,-1.592 0.334,-5.12 0.334,-10.226l0,-2.322l-16.036,0c0,6.368 -0.198,9.896 -0.338,10.758c-0.898,4.244 -3.156,6.368 -7.022,6.368c-5.392,0 -8.018,-4.046 -8.018,-12.162l0,-15.534l31.412,0l0,-18.156c0,-9.364 -1.576,-16.208 -4.862,-20.642c-4.396,-6.002 -10.654,-8.988 -18.534,-8.988zm7.69,34.564l-15.708,0l0,-8.104c0,-8.104 2.626,-12.162 7.876,-12.162c5.202,0 7.832,4.058 7.832,12.162l0,8.104l0,0z"/>
 </g>
</svg>